Coordinates
version=1
nRows=21
nColumns=19
inDegrees=yes

Units are S.I. units (second, meters, Newtons, ...)
If the header above contains a line with 'inDegrees', this indicates whether rotational values are in degrees (yes) or radians (no).

endheader
time	pelvis_tilt	pelvis_list	pelvis_rotation	pelvis_tx	pelvis_ty	pelvis_tz	hip_flexion_r	hip_adduction_r	hip_rotation_r	knee_angle_r	knee_angle_r_beta	ankle_angle_r	hip_flexion_l	hip_adduction_l	hip_rotation_l	knee_angle_l	knee_angle_l_beta	ankle_angle_l
     12.06000000	    -16.88331458	     -7.19887187	     -2.07370116	      2.09629440	      0.91604620	      1.03023513	     46.28778800	      9.01056568	    -16.41553219	     18.43728497	      0.32179133	     12.26109338	     -9.23043928	     -7.69527931	     -1.03948935	     57.86098832	      1.00986475	    -22.23857850
     12.06666667	    -16.20763602	     -7.88099812	     -2.47867599	      2.09608804	      0.91253676	      1.03062948	     45.66000626	      9.50872660	    -17.67137788	     20.88639568	      0.36453637	     11.72824197	     -8.55201401	     -8.86876994	     -1.96039829	     62.64710815	      1.09339830	    -22.90441010
     12.07333333	    -15.46491022	     -8.42929897	     -2.99234503	      2.09591548	      0.90884057	      1.03113940	     45.03129341	      9.87465887	    -18.61006386	     23.93084266	      0.41767200	     11.25644796	     -7.95724153	     -9.89156106	     -2.85146018	     67.22878412	      1.17336363	    -23.35662117
     12.08000000	    -15.19168012	     -8.80479703	     -3.30883003	      2.09552371	      0.90448318	      1.03142171	     44.93247135	      9.87606097	    -19.39406142	     27.35899339	      0.47750451	     10.83100153	     -6.61969078	    -10.73483892	     -3.18562422	     71.83906514	      1.25382822	    -23.47538334
     12.08666667	    -14.29428176	     -9.27081755	     -3.78707700	      2.09523641	      0.90089404	      1.03189576	     44.02378787	     10.16095133	    -19.63980315	     30.76449696	      0.53694176	     10.67220986	     -6.03460849	    -11.64183253	     -3.74294716	     76.10110240	      1.32821480	    -23.39543242
     12.09333333	    -14.06584144	     -9.34838933	     -3.97309494	      2.09447269	      0.89666465	      1.03207825	     43.84226315	      9.94460385	    -19.57704220	     34.31850668	      0.59897094	     10.91182289	     -4.33995714	    -12.06758160	     -3.50901901	     80.39168314	      1.40309956	    -23.02852982
     12.10000000	    -13.59663134	     -9.38059041	     -4.25675828	      2.09355867	      0.89300486	      1.03246842	     43.25538042	      9.91982426	    -18.99131126	     37.68042852	      0.65764754	     11.59818640	     -2.84066413	    -12.41795818	     -3.34427088	     84.39637546	      1.47299463	    -22.54789397
     12.10666667	    -13.24703448	     -9.28402395	     -4.52086589	      2.09233016	      0.88959634	      1.03293195	     42.65188208	      9.91551770	    -18.07507815	     40.81856500	      0.71241836	     12.74649736	     -1.00777957	    -12.61476214	     -3.01263393	     88.21396177	      1.53962408	    -21.97650728
     12.11333333	    -12.68635598	     -9.16643908	     -4.67369239	      2.09097041	      0.88697972	      1.03335492	     41.59511261	      9.95686527	    -17.04008129	     43.58024801	      0.76061882	     14.36029664	      0.76234546	    -12.73136456	     -2.50262242	     91.72668465	      1.60093266	    -21.30656390
     12.12000000	    -12.65634397	     -8.64810329	     -4.77115096	      2.08910047	      0.88431337	      1.03375940	     40.96831304	      9.68492141	    -15.79911000	     46.10308179	      0.80465057	     16.29513072	      3.44523158	    -12.37694486	     -1.74158499	     95.06752276	      1.65924128	    -20.82718939
     12.12666667	    -12.53171896	     -8.18610934	     -4.80489408	      2.08719791	      0.88237420	      1.03415286	     39.93187851	      9.51813870	    -14.59086225	     48.10631186	      0.83961353	     18.49968121	      6.16363197	    -12.05551772	     -0.93378273	     98.06820792	      1.71161312	    -20.30583877
     12.13333333	    -12.42516463	     -7.64022696	     -4.75963595	      2.08523071	      0.88103985	      1.03444571	     38.63212592	      9.25374405	    -13.45842643	     49.64054707	      0.86639099	     20.80144660	      9.06055118	    -11.58303850	     -0.06564927	    100.71132463	      1.75774421	    -19.82454132
     12.14000000	    -11.89163057	     -7.30080128	     -4.78764573	      2.08353267	      0.88083752	      1.03489249	     36.48444291	      9.26420435	    -12.36748206	     50.52641122	      0.88185224	     23.17067912	     11.45811028	    -11.41749575	      0.54435453	    102.86844359	      1.79539304	    -19.30815142
     12.14666667	    -12.14012949	     -6.38809099	     -4.42879222	      2.08142266	      0.88030186	      1.03470986	     35.08996700	      8.43667787	    -11.54096089	     51.23170488	      0.89416193	     25.21892234	     15.08987685	    -10.32207048	      1.62450058	    104.78006668	      1.82875715	    -18.91427745
     12.15333333	    -12.02408545	     -5.70638764	     -4.25825343	      2.07983214	      0.88069114	      1.03484287	     32.93616021	      7.94197718	    -10.71209378	     51.32240088	      0.89574488	     27.07222577	     18.14168782	     -9.62014827	      2.25789327	    106.15710296	      1.85279097	    -18.37190435
     12.16000000	    -11.78940522	     -5.08017467	     -4.25069858	      2.07859110	      0.88180316	      1.03530111	     30.37419153	      7.59249421	     -9.78754272	     50.90184848	      0.88840485	     28.52244920	     20.93964194	     -9.10807159	      2.53215037	    107.03119070	      1.86804668	    -17.80225679
     12.16666667	    -11.69149037	     -4.19378617	     -3.89925652	      2.07749360	      0.88309881	      1.03527892	     27.85132199	      6.68063677	     -9.32959913	     50.27265486	      0.87742335	     29.60641432	     23.95319273	     -8.10266845	      2.93863250	    107.50778219	      1.87636477	    -17.15689730
     12.17333333	    -11.70786773	     -3.42544720	     -3.92484628	      2.07683164	      0.88479824	      1.03590949	     25.23227517	      6.09841687	     -8.57319863	     49.17867358	      0.85832978	     29.96176072	     26.83110523	     -7.53668858	      2.78860069	    107.49104905	      1.87607272	    -16.45611977
     12.18000000	    -11.53147990	     -2.39163153	     -3.60120257	      2.07649793	      0.88701691	      1.03614017	     22.33132562	      4.96848325	     -8.26790939	     47.92635947	      0.83647277	     30.05504113	     29.42011296	     -6.46312851	      2.67863239	    107.01847038	      1.86782467	    -15.58952972
     12.18666667	    -11.27429711	     -1.38772858	     -3.51921239	      2.07662144	      0.88977069	      1.03683561	     19.21586849	      3.94186034	     -7.83079584	     46.35210855	      0.80899691	     29.40577914	     31.64247197	     -5.67712281	      2.11034152	    106.06802293	      1.85123623	    -14.65299293
     12.19333333	    -11.04755828	     -0.34162077	     -3.53740882	      2.07703192	      0.89279360	      1.03779067	     16.08654455	      2.85874353	     -7.40238127	     44.56797933	      0.77785798	     28.22938966	     33.67189319	     -4.97919084	      1.25723261	    104.70247333	      1.82740289	    -13.60324117
